<svg xmlns="http://www.w3.org/2000/svg" xmlns:xlink="http://www.w3.org/1999/xlink" version="1.1" id="Layer_1" x="0px" y="0px" width="100px" height="75.0px" viewBox="0 0 1024 768" enable-background="new 0 0 1024 768" xml:space="preserve">
<g>
	<path d="M508.212,161.18c-278.67,0-504.55,112.021-504.55,250.152c0,138.167,225.88,250.188,504.55,250.188   c278.672,0,504.552-112.021,504.552-250.188C1012.765,273.2,786.885,161.18,508.212,161.18z M508.212,595.354   c-223.614,0-404.861-89.799-404.861-200.546c0-110.746,181.247-200.546,404.861-200.546c223.618,0,404.879,89.801,404.879,200.546   C913.092,505.556,731.83,595.354,508.212,595.354z"/>
	<path d="M508.212,221.222c-146.004,0-264.323,60.008-264.323,133.958c0,73.95,118.318,133.958,264.323,133.958   c145.987,0,264.342-60.009,264.342-133.958C772.554,281.231,654.199,221.222,508.212,221.222z M516.298,433.977   c-106.678,0-193.187-39.416-193.187-88.065c0-48.615,86.509-88.032,193.187-88.032c106.695,0,193.17,39.417,193.17,88.032   C709.468,394.561,622.993,433.977,516.298,433.977z"/>
	<path d="M583.896,339.861c0,22.079-33.896,39.979-75.685,39.979c-41.803,0-75.682-17.901-75.682-39.979   c0-22.044,33.879-39.947,75.682-39.947C550,299.914,583.896,317.816,583.896,339.861z"/>
</g>
</svg>